name ./resultDataOpenSim/trcMotMarkerGrf/sub06/grf-03-06.mot
datacolumns 19
datarows 10
range 0.53200000 0.56800000
endheader

                time	     ground_force_vx	     ground_force_vy	     ground_force_vz	     ground_force_px	     ground_force_py	     ground_force_pz	   l_ground_force_vx	   l_ground_force_vy	   l_ground_force_vz	   l_ground_force_px	   l_ground_force_py	   l_ground_force_pz	     ground_torque_x	     ground_torque_y	     ground_torque_z	   l_ground_torque_x	   l_ground_torque_y	   l_ground_torque_z	
          0.53200000	         99.92167931	        602.43989530	        -23.10828830	         -0.82066726	          0.00000000	          0.11870649	          0.00000000	          0.00000000	          0.00000000	          0.00000000	          0.00000000	          0.00000000	          0.00000000	          1.82256222	          0.00000000	          0.00000000	          0.00000000	          0.00000000	
          0.53600000	        106.09395653	        620.03145518	        -25.50228405	         -0.82043751	          0.00000000	          0.11861973	          0.00000000	          0.00000000	          0.00000000	          0.00000000	          0.00000000	          0.00000000	          0.00000000	          1.79591777	          0.00000000	          0.00000000	          0.00000000	          0.00000000	
          0.54000000	        112.67714811	        637.32279254	        -27.40392645	         -0.82019413	          0.00000000	          0.11851929	          0.00000000	          0.00000000	          0.00000000	          0.00000000	          0.00000000	          0.00000000	          0.00000000	          1.77848176	          0.00000000	          0.00000000	          0.00000000	          0.00000000	
          0.54400000	        119.68205969	        654.19340804	        -28.67673137	         -0.81996134	          0.00000000	          0.11838374	          0.00000000	          0.00000000	          0.00000000	          0.00000000	          0.00000000	          0.00000000	          0.00000000	          1.77776135	          0.00000000	          0.00000000	          0.00000000	          0.00000000	
          0.54800000	        127.08586892	        670.51165729	        -29.31379815	         -0.81974724	          0.00000000	          0.11820600	          0.00000000	          0.00000000	          0.00000000	          0.00000000	          0.00000000	          0.00000000	          0.00000000	          1.79490243	          0.00000000	          0.00000000	          0.00000000	          0.00000000	
          0.55200000	        134.84693571	        686.12216467	        -29.42744991	         -0.81954264	          0.00000000	          0.11799322	          0.00000000	          0.00000000	          0.00000000	          0.00000000	          0.00000000	          0.00000000	          0.00000000	          1.82441861	          0.00000000	          0.00000000	          0.00000000	          0.00000000	
          0.55600000	        142.91209950	        700.85063940	        -29.21344261	         -0.81933623	          0.00000000	          0.11775986	          0.00000000	          0.00000000	          0.00000000	          0.00000000	          0.00000000	          0.00000000	          0.00000000	          1.85572470	          0.00000000	          0.00000000	          0.00000000	          0.00000000	
          0.56000000	        151.22000166	        714.53291181	        -28.89792864	         -0.81912560	          0.00000000	          0.11751833	          0.00000000	          0.00000000	          0.00000000	          0.00000000	          0.00000000	          0.00000000	          0.00000000	          1.87596475	          0.00000000	          0.00000000	          0.00000000	          0.00000000	
          0.56400000	        159.70721950	        727.04402732	        -28.68173063	         -0.81891464	          0.00000000	          0.11727309	          0.00000000	          0.00000000	          0.00000000	          0.00000000	          0.00000000	          0.00000000	          0.00000000	          1.87331830	          0.00000000	          0.00000000	          0.00000000	          0.00000000	
          0.56800000	        168.31369135	        738.29863053	        -28.69530238	         -0.81870282	          0.00000000	          0.11702449	          0.00000000	          0.00000000	          0.00000000	          0.00000000	          0.00000000	          0.00000000	          0.00000000	          1.83998595	          0.00000000	          0.00000000	          0.00000000	          0.00000000	
